# Blender v2.82 (sub 7) OBJ File: ''
# www.blender.org
o Cube.001
v 0.658466 0.658466 -0.658466
v 0.000000 1.105572 0.000000
v 0.802760 0.802760 0.000000
v -0.658466 0.658466 -0.658466
v 0.000000 0.802760 -0.802759
v -0.658466 0.658466 0.658466
v 0.000000 0.802759 0.802760
v 0.658466 0.658466 0.658466
v 0.658466 -0.658466 0.658466
v 0.000000 -0.000000 1.105572
v 0.000000 -0.802760 0.802759
v 0.802760 -0.000000 0.802760
v -0.802760 -0.000000 0.802760
v -0.658466 -0.658466 0.658466
v -1.105572 0.000000 0.000000
v -0.802760 -0.802760 -0.000000
v -0.802760 0.000000 -0.802760
v -0.658466 -0.658466 -0.658466
v 0.000000 -1.105572 -0.000000
v 0.658466 -0.658466 -0.658466
v 0.000000 -0.802759 -0.802760
v 1.105572 0.000000 0.000000
v 0.802760 -0.802760 -0.000000
v 0.802760 0.000000 -0.802760
v 0.000000 0.000000 -1.105572
v -0.802760 0.802760 0.000000
vt 0.666667 0.458333
vt 0.751736 0.625000
vt 0.631945 0.625000
vt 0.875000 0.500000
vt 0.755208 0.494792
vt 0.875000 0.750000
vt 0.755208 0.755208
vt 0.666667 0.791667
vt 0.333333 0.791667
vt 0.500000 0.876736
vt 0.369792 0.880208
vt 0.500000 0.756944
vt 0.625000 1.000000
vt 0.500000 1.000000
vt 0.375000 1.000000
vt 0.375000 0.000000
vt 0.500000 0.125000
vt 0.375000 0.125000
vt 0.625000 0.000000
vt 0.500000 0.000000
vt 0.625000 0.250000
vt 0.500000 0.250000
vt 0.375000 0.250000
vt 0.125000 0.500000
vt 0.248264 0.625000
vt 0.125000 0.625000
vt 0.333333 0.458333
vt 0.244792 0.494792
vt 0.244792 0.755208
vt 0.125000 0.750000
vt 0.500000 0.625000
vt 0.368056 0.625000
vt 0.500000 0.493056
vt 0.500000 0.373264
vt 0.369792 0.369792
vt 0.875000 0.625000
vt 0.630208 0.880208
vt 0.625000 0.125000
vt 0.630208 0.369792
vn 0.3397 0.9004 -0.2717
vn -0.2717 0.9004 -0.3397
vn -0.2717 0.9004 0.3397
vn 0.3397 0.9004 0.2717
vn 0.2717 -0.3397 0.9004
vn 0.3397 0.2717 0.9004
vn -0.3397 0.2717 0.9004
vn -0.2717 -0.3397 0.9004
vn -0.9004 -0.3397 0.2717
vn -0.9004 0.2717 0.3397
vn -0.9004 0.2717 -0.3397
vn -0.9004 -0.3397 -0.2717
vn -0.3397 -0.9004 -0.2717
vn 0.2717 -0.9004 -0.3397
vn 0.2717 -0.9004 0.3397
vn -0.3397 -0.9004 0.2717
vn 0.9004 -0.3397 -0.2717
vn 0.9004 0.2717 -0.3397
vn 0.9004 0.2717 0.3397
vn 0.9004 -0.3397 0.2717
vn -0.2717 -0.3397 -0.9004
vn -0.3397 0.2717 -0.9004
vn 0.3397 0.2717 -0.9004
vn 0.2717 -0.3397 -0.9004
vn 0.2717 0.9004 -0.3397
vn -0.3397 0.9004 -0.2717
vn -0.3397 0.9004 0.2717
vn 0.2717 0.9004 0.3397
vn 0.3397 -0.2717 0.9004
vn 0.2717 0.3397 0.9004
vn -0.2717 0.3397 0.9004
vn -0.3397 -0.2717 0.9004
vn -0.9004 -0.2717 0.3397
vn -0.9004 0.3397 0.2717
vn -0.9004 0.3397 -0.2717
vn -0.9004 -0.2717 -0.3397
vn -0.2717 -0.9004 -0.3397
vn 0.3397 -0.9004 -0.2717
vn 0.3397 -0.9004 0.2717
vn -0.2717 -0.9004 0.3397
vn 0.9004 -0.2717 -0.3397
vn 0.9004 0.3397 -0.2717
vn 0.9004 0.3397 0.2717
vn 0.9004 -0.2717 0.3397
vn -0.3397 -0.2717 -0.9004
vn -0.2717 0.3397 -0.9004
vn 0.2717 0.3397 -0.9004
vn 0.3397 -0.2717 -0.9004
s 1
f 1/1/1 2/2/1 3/3/1
f 4/4/2 2/2/2 5/5/2
f 2/2/3 6/6/3 7/7/3
f 2/2/4 8/8/4 3/3/4
f 9/9/5 10/10/5 11/11/5
f 8/8/6 10/10/6 12/12/6
f 10/10/7 6/13/7 13/14/7
f 10/10/8 14/15/8 11/11/8
f 14/16/9 15/17/9 16/18/9
f 6/19/10 15/17/10 13/20/10
f 15/17/11 4/21/11 17/22/11
f 15/17/12 18/23/12 16/18/12
f 18/24/13 19/25/13 16/26/13
f 20/27/14 19/25/14 21/28/14
f 19/25/15 9/9/15 11/29/15
f 19/25/16 14/30/16 16/26/16
f 20/27/17 22/31/17 23/32/17
f 1/1/18 22/31/18 24/33/18
f 22/31/19 8/8/19 12/12/19
f 22/31/20 9/9/20 23/32/20
f 18/23/21 25/34/21 21/35/21
f 4/21/22 25/34/22 17/22/22
f 25/34/23 1/1/23 24/33/23
f 25/34/24 20/27/24 21/35/24
f 1/1/25 5/5/25 2/2/25
f 4/4/26 26/36/26 2/2/26
f 2/2/27 26/36/27 6/6/27
f 2/2/28 7/7/28 8/8/28
f 9/9/29 12/12/29 10/10/29
f 8/8/30 7/37/30 10/10/30
f 10/10/31 7/37/31 6/13/31
f 10/10/32 13/14/32 14/15/32
f 14/16/33 13/20/33 15/17/33
f 6/19/34 26/38/34 15/17/34
f 15/17/35 26/38/35 4/21/35
f 15/17/36 17/22/36 18/23/36
f 18/24/37 21/28/37 19/25/37
f 20/27/38 23/32/38 19/25/38
f 19/25/39 23/32/39 9/9/39
f 19/25/40 11/29/40 14/30/40
f 20/27/41 24/33/41 22/31/41
f 1/1/42 3/3/42 22/31/42
f 22/31/43 3/3/43 8/8/43
f 22/31/44 12/12/44 9/9/44
f 18/23/45 17/22/45 25/34/45
f 4/21/46 5/39/46 25/34/46
f 25/34/47 5/39/47 1/1/47
f 25/34/48 24/33/48 20/27/48
